<svg width="201" height="201" viewBox="0 0 201 201" fill="none" xmlns="http://www.w3.org/2000/svg">
<g clip-path="url(#clip0_741_604)">
<path d="M196.898 137.418V151.776H4.10205V137.418H10.2551H190.745H196.898Z" fill="#AFB6BB"/>
<path d="M118.959 4.10205H82.041V18.4592H118.959V4.10205Z" fill="#AFB6BB"/>
<path d="M190.745 18.4592V137.418H10.2549V18.4592H82.0406H118.959H190.745Z" fill="white"/>
<path d="M196.898 133.316H194.847V18.4592C194.847 16.1936 193.01 14.3571 190.745 14.3571H123.061V4.10204C123.061 1.83648 121.225 0 118.959 0H82.0408C79.7753 0 77.9388 1.83648 77.9388 4.10204V14.3571H10.2551C7.98954 14.3571 6.15306 16.1936 6.15306 18.4592V133.316H4.10204C1.83648 133.316 0 135.153 0 137.418V151.776C0 154.041 1.83648 155.878 4.10204 155.878H66.5917L45.707 190.685L52.7416 194.906L76.1593 155.878H96.398V201H104.602V155.878H124.841L148.258 194.906L155.293 190.685L134.408 155.878H196.898C199.164 155.878 201 154.041 201 151.776V137.418C201 135.153 199.164 133.316 196.898 133.316ZM86.1429 8.20408H114.857V14.3571H86.1429V8.20408ZM14.3571 22.5612H186.643V133.316H14.3571V22.5612ZM192.796 147.673H8.20408V141.52H192.796V147.673Z" fill="#231F20"/>
<path d="M106.653 77.9389H69.7349V41.0205C90.122 41.0205 106.653 57.5517 106.653 77.9389Z" fill="#AFB6BB"/>
<path d="M106.653 77.9389C106.653 98.326 90.1219 114.857 69.7348 114.857C49.3476 114.857 32.8164 98.326 32.8164 77.9389C32.8164 57.5517 49.3476 41.0205 69.7348 41.0205V77.9389H106.653Z" fill="#43B05C"/>
<path d="M69.7348 36.9185C47.1161 36.9185 28.7144 55.3202 28.7144 77.9389C28.7144 100.558 47.1161 118.959 69.7348 118.959C92.3534 118.959 110.755 100.558 110.755 77.9389C110.755 55.3202 92.3534 36.9185 69.7348 36.9185ZM102.286 73.8368H73.8368V45.3879C88.6567 47.2458 100.428 59.017 102.286 73.8368ZM69.7348 110.755C51.6398 110.755 36.9184 96.0338 36.9184 77.9389C36.9184 61.2337 49.4678 47.4144 65.6327 45.3879V77.9389C65.6327 80.2044 67.4692 82.0409 69.7348 82.0409H102.286C100.259 98.2058 86.4399 110.755 69.7348 110.755Z" fill="#231F20"/>
<path d="M170.235 53.3264H141.521V61.5305H170.235V53.3264Z" fill="#231F20"/>
<path d="M170.235 65.6326H141.521V73.8366H170.235V65.6326Z" fill="#231F20"/>
<path d="M170.235 77.9387H141.521V86.1428H170.235V77.9387Z" fill="#231F20"/>
<path d="M159.98 41.0205H141.521V49.2246H159.98V41.0205Z" fill="#231F20"/>
<path d="M111.605 54.1761L105.803 48.3746L111.956 42.2215C112.725 41.4524 113.769 41.02 114.857 41.02H133.316V49.2241H116.556L111.605 54.1761Z" fill="#231F20"/>
<path d="M174.337 96.3979H127.163V104.602H174.337V96.3979Z" fill="#231F20"/>
<path d="M174.337 110.755H114.857V118.959H174.337V110.755Z" fill="#231F20"/>
</g>
<defs>
<clipPath id="clip0_741_604">
<rect width="201" height="201" fill="white"/>
</clipPath>
</defs>
</svg>
