<svg width="273" height="273" viewBox="0 0 273 273" fill="none" xmlns="http://www.w3.org/2000/svg">
<g clip-path="url(#clip0_521_481)">
<path d="M184.866 113.08C184.588 118.708 183.68 125.141 178.959 127.703C177.826 128.263 176.911 129.183 176.357 130.319C175.015 133.371 177.644 134.74 179.274 136.497C180.298 137.63 181.031 138.995 181.408 140.475C181.597 143.447 182.014 146.401 182.655 149.309C183.068 151.36 183.74 153.351 184.654 155.232C186.445 158.62 188.733 160.31 191.101 161.175C195.742 162.873 202.095 163.476 206.207 162.363C206.685 162.236 207.194 162.288 207.637 162.509C208.08 162.73 208.428 163.105 208.615 163.563C208.675 163.718 211.258 169.326 210.312 174.779C217.517 169.474 232.334 163.443 243.571 164.01C245.556 164.11 246.906 164.128 248.292 165.071C248.136 164.422 248 163.847 248 163.847C247.776 162.631 247.722 161.389 247.839 160.158C248.102 158.305 248.822 156.547 249.933 155.042C243.694 151.535 236.1 142.671 234.156 137.088C234.156 137.088 234.089 136.896 233.975 136.561C236.462 133.879 237.874 130.373 237.939 126.716C238.065 124.187 237.142 121.113 235.128 119.643C234.412 119.157 233.598 118.836 232.743 118.704C231.889 118.571 231.015 118.63 230.186 118.876C228.14 119.389 226.899 120.638 225.633 122.215C222.95 117.362 222.266 115.063 219.377 111.838C214.188 106.489 206.205 100.445 196.791 98.7323C192.623 98.0863 188.333 98.741 185.474 100.481C184.976 103.637 184.809 106.836 184.976 110.026C184.947 110.994 184.917 112.023 184.866 113.08Z" fill="white"/>
<path d="M205.736 184.01C205.333 185.208 204.871 186.554 204.333 188.069C200.926 198.72 199.177 205.541 194.965 222.439H266.739C263.581 202.438 261.645 182.456 250.587 167.443C248.14 164.121 246.59 164.156 243.57 164.007C232.249 163.434 217.295 169.561 210.146 174.894C208.269 176.296 207.528 178.713 205.736 184.01Z" fill="white"/>
<path d="M210.182 70.6241C196.609 75.5645 190.355 85.2158 189.275 87.3858C187.078 91.805 185.828 95.167 185.365 100.547C188.224 98.7557 192.569 98.0762 196.791 98.7302C206.205 100.443 214.189 106.487 219.377 111.836C222.266 115.061 222.95 117.36 225.634 122.213C226.899 120.636 228.14 119.387 230.186 118.874C231.015 118.628 231.889 118.569 232.743 118.702C233.598 118.834 234.412 119.155 235.128 119.641C237.14 121.11 238.065 124.185 237.939 126.714C237.874 130.371 236.463 133.876 233.975 136.559C234.09 136.894 234.157 137.086 234.157 137.086C236.102 142.67 243.695 151.535 249.936 155.04C252.267 151.586 256.002 148.357 258.395 145.747C263.867 139.777 271.828 128.14 271.373 111.956C270.995 103.298 268.256 94.909 263.454 87.6957C252.468 71.5398 240.076 68.7587 232.439 67.8108C225.102 66.9997 217.676 67.8951 210.742 70.4269C210.554 70.4907 210.367 70.5571 210.182 70.6241Z" fill="#7A7473"/>
<path d="M183.987 99.662C183.642 101.67 183.427 103.698 183.345 105.733C183.273 107.612 183.388 109.482 183.325 111.357C183.318 114.271 182.989 117.176 182.344 120.018C181.702 122.488 180.569 124.896 178.328 126.208C176.688 127.039 175.403 128.431 174.705 130.131C174.428 130.869 174.333 131.664 174.429 132.446C174.525 133.229 174.809 133.976 175.257 134.626C176.085 135.825 177.269 136.662 178.23 137.735C178.728 138.303 179.133 138.945 179.43 139.639C179.715 140.347 179.874 141.099 179.899 141.861C180.156 145.906 180.948 149.898 182.254 153.734C183.487 157.05 185.604 160.15 188.768 161.878C191.821 163.544 195.563 164.171 198.989 164.442C201.022 164.614 203.067 164.546 205.084 164.241C205.685 164.083 206.3 163.986 206.921 163.951C207.021 163.958 207.064 164.095 207.122 164.144C207.004 164.041 206.996 163.835 207.244 164.412C207.395 164.765 207.11 164.055 207.244 164.419C208.441 167.556 209.307 170.976 208.76 174.35C208.66 174.762 208.72 175.196 208.929 175.564C209.138 175.932 209.48 176.206 209.885 176.331C210.296 176.441 210.735 176.384 211.105 176.174C211.476 175.964 211.749 175.616 211.865 175.206C212.378 171.67 212.004 168.063 210.779 164.706C210.64 164.307 210.491 163.911 210.33 163.518C210.241 163.299 210.15 163.081 210.055 162.864C210.023 162.792 209.945 162.624 210.095 162.961C210.327 163.485 209.848 162.443 209.783 162.345C209.306 161.617 208.588 161.081 207.755 160.83C206.807 160.653 205.831 160.716 204.914 161.012C201.55 161.567 198.108 161.419 194.804 160.578C191.753 159.885 188.986 158.807 187.112 156.165C184.824 152.939 184.064 148.832 183.49 144.994C183.365 144.158 183.263 143.317 183.178 142.479C183.152 141.576 183.055 140.677 182.887 139.789C182.393 138.008 181.448 136.384 180.142 135.076C179.298 134.228 178.077 133.443 177.66 132.36C177.559 131.899 177.611 131.418 177.809 130.99C178.102 130.379 178.556 129.858 179.123 129.485C180.35 128.631 181.588 127.977 182.564 126.802C183.511 125.636 184.264 124.325 184.794 122.919C187.595 115.792 185.836 107.893 187.092 100.523C187.193 100.111 187.133 99.6771 186.924 99.3089C186.715 98.9407 186.373 98.6664 185.968 98.5424C185.556 98.4323 185.118 98.4885 184.747 98.6988C184.377 98.9092 184.104 99.2568 183.987 99.6667V99.662Z" fill="#211715"/>
<path d="M186.86 102.205C187.055 96.8922 188.571 91.712 191.271 87.1322C192.071 85.817 192.995 84.5815 194.031 83.4429C195.649 81.5962 197.435 79.9041 199.367 78.3885C208.12 71.8905 218.858 68.6339 229.745 69.1752C230.688 69.2311 231.627 69.3183 232.563 69.4368L232.816 69.469C233.236 69.522 232.575 69.4348 232.841 69.469C233.084 69.5032 233.327 69.5361 233.571 69.5743C234.5 69.7138 235.424 69.8797 236.344 70.072C240.969 71.0212 245.369 72.8511 249.303 75.4618C254.912 79.2975 259.623 84.3031 263.112 90.134C267.061 96.5436 269.341 103.841 269.741 111.359C270.039 118.183 268.76 124.984 266.004 131.234C263.934 135.901 261.157 140.22 257.77 144.039C255.777 146.281 253.54 148.289 251.521 150.507C249.395 152.843 247.205 155.538 246.462 158.683C246.077 160.525 246.072 162.427 246.448 164.272C246.565 164.681 246.838 165.029 247.208 165.239C247.579 165.45 248.017 165.506 248.429 165.396C248.835 165.274 249.179 165.001 249.389 164.632C249.598 164.263 249.657 163.827 249.553 163.416C249.221 161.776 249.334 160.078 249.882 158.498C250.439 157.135 251.199 155.865 252.136 154.73C254.198 152.086 256.721 149.851 259.025 147.429C262.653 143.609 265.681 139.261 268.003 134.532C271.365 127.833 273.077 120.428 272.996 112.933C272.915 105.438 271.043 98.0714 267.537 91.4467C264.192 84.9427 259.484 79.236 253.735 74.7152C249.473 71.3652 244.582 68.9059 239.351 67.4834C232.807 65.79 225.983 65.4614 219.306 66.5178C212.629 67.5743 206.241 69.9934 200.539 73.6245C196.277 76.3599 192.553 79.8538 189.552 83.9325C188.74 85.055 188.03 86.2484 187.432 87.4985C185.98 90.3714 184.92 93.4258 184.279 96.5803C183.949 98.4399 183.735 100.318 183.641 102.205C183.525 104.276 186.745 104.269 186.861 102.205H186.86Z" fill="#211715"/>
<path d="M232.604 137.514C233.946 141.28 236.418 144.624 238.995 147.632C241.744 150.967 245.004 153.844 248.654 156.158C250.433 157.231 252.053 154.449 250.28 153.377C246.942 151.246 243.96 148.605 241.44 145.55C239.18 142.934 236.827 139.799 235.71 136.658C235.587 136.252 235.313 135.909 234.945 135.7C234.576 135.49 234.141 135.431 233.729 135.533C233.32 135.65 232.972 135.923 232.762 136.294C232.552 136.664 232.495 137.102 232.605 137.514H232.604Z" fill="#211715"/>
<path d="M196.363 100.282C201.46 101.309 206.284 103.395 210.523 106.404C212.422 107.716 214.227 109.159 215.924 110.723C217.542 112.127 218.972 113.735 220.177 115.507C221.623 117.752 222.716 120.218 223.99 122.561C224.979 124.382 227.76 122.763 226.769 120.937C225.597 118.778 224.572 116.528 223.297 114.426C222.075 112.459 220.594 110.666 218.894 109.093C215.155 105.474 210.873 102.464 206.202 100.172C203.35 98.7874 200.331 97.781 197.219 97.1779C196.808 97.0757 196.373 97.1354 196.004 97.3447C195.636 97.5539 195.362 97.8966 195.239 98.3022C195.129 98.7137 195.186 99.1519 195.396 99.5223C195.606 99.8927 195.954 100.166 196.363 100.282Z" fill="#211715"/>
<path d="M227.558 122.423C229.024 120.833 231.238 119.655 233.428 120.525C235.291 121.263 236.147 123.558 236.304 125.413C236.448 127.318 236.18 129.231 235.518 131.022C234.856 132.814 233.816 134.442 232.469 135.795C230.824 137.357 228.895 138.587 226.785 139.418C226.38 139.543 226.039 139.817 225.83 140.185C225.621 140.553 225.561 140.987 225.66 141.398C225.776 141.808 226.049 142.156 226.42 142.367C226.79 142.577 227.229 142.633 227.641 142.523C232.431 140.544 236.487 137.378 238.412 132.437C240.252 127.713 240.322 120.027 234.842 117.644C231.442 116.169 227.682 117.542 225.281 120.146C223.879 121.667 226.15 123.951 227.558 122.423Z" fill="#211715"/>
<path d="M192.875 93.7066C188.512 95.234 184.778 98.1655 182.259 102.042C182.047 102.411 181.988 102.849 182.097 103.261C182.205 103.673 182.47 104.026 182.836 104.244C183.207 104.45 183.643 104.506 184.054 104.398C184.464 104.29 184.817 104.028 185.039 103.666C185.178 103.453 185.319 103.242 185.465 103.034C185.538 102.93 185.612 102.826 185.688 102.724C185.717 102.684 185.923 102.411 185.758 102.625C186.069 102.222 186.401 101.835 186.745 101.462C187.418 100.733 188.146 100.056 188.923 99.4392C189.142 99.2648 188.629 99.6545 189.02 99.3647C189.102 99.3043 189.183 99.2433 189.266 99.1836C189.472 99.0347 189.681 98.8898 189.892 98.7489C190.316 98.4672 190.751 98.2029 191.195 97.9561C191.64 97.7092 192.094 97.4807 192.557 97.2705L192.836 97.1471C192.58 97.2584 192.896 97.1243 192.945 97.1042C193.205 97.0009 193.467 96.9029 193.731 96.811C194.143 96.6975 194.493 96.4251 194.704 96.0538C194.914 95.6824 194.969 95.2425 194.856 94.8308C194.742 94.4192 194.47 94.0695 194.098 93.8586C193.727 93.6478 193.287 93.5931 192.875 93.7066Z" fill="#211715"/>
<path d="M200.7 107.092C200.46 108.97 200.768 111.214 202.238 112.559C203.08 113.293 204.146 113.722 205.262 113.775C206.378 113.828 207.48 113.504 208.388 112.853C208.986 112.442 209.475 111.893 209.815 111.252C210.154 110.611 210.334 109.897 210.338 109.172C210.338 108.745 210.169 108.335 209.867 108.033C209.565 107.731 209.155 107.562 208.728 107.562C208.301 107.562 207.892 107.731 207.59 108.033C207.288 108.335 207.119 108.745 207.119 109.172C207.119 109.262 207.119 109.351 207.113 109.44C207.103 109.722 207.19 109.09 207.121 109.359C207.096 109.456 207.07 109.552 207.042 109.649C206.949 109.97 207.176 109.409 207.057 109.617C207.014 109.69 206.978 109.766 206.933 109.838C206.907 109.872 206.884 109.907 206.862 109.944C206.795 110.078 206.988 109.788 206.988 109.788C206.84 109.914 206.719 110.083 206.572 110.216C206.371 110.399 206.855 110.026 206.624 110.173C206.55 110.22 206.479 110.269 206.403 110.312C206.328 110.356 206.25 110.395 206.173 110.435C206.066 110.49 205.936 110.49 206.317 110.378C206.261 110.394 206.208 110.419 206.153 110.438C205.985 110.493 205.814 110.538 205.641 110.572C205.363 110.629 206.003 110.549 205.719 110.558C205.6 110.562 205.482 110.569 205.364 110.565C205.279 110.565 205.194 110.554 205.11 110.548C204.833 110.532 205.478 110.625 205.217 110.56C205.055 110.521 204.897 110.482 204.738 110.43C204.413 110.326 205.031 110.584 204.821 110.465C204.759 110.43 204.696 110.398 204.635 110.364C204.574 110.33 204.517 110.287 204.458 110.25C204.266 110.128 204.762 110.521 204.54 110.307C204.509 110.277 204.211 110.009 204.23 109.982C204.226 109.988 204.493 110.348 204.315 110.083C204.269 110.016 204.226 109.943 204.185 109.871C204.144 109.798 204.118 109.743 204.085 109.679C203.937 109.395 204.201 110.006 204.115 109.759C204.06 109.602 204.006 109.447 203.965 109.286C203.941 109.197 203.92 109.106 203.902 109.017C203.874 108.876 203.859 108.512 203.895 109.044C203.881 108.846 203.854 108.651 203.848 108.452C203.835 107.997 203.86 107.542 203.92 107.092C203.921 106.88 203.88 106.67 203.8 106.474C203.719 106.279 203.6 106.101 203.451 105.951C203.301 105.802 203.124 105.683 202.928 105.602C202.733 105.521 202.523 105.479 202.312 105.479C202.101 105.479 201.891 105.521 201.696 105.602C201.5 105.683 201.323 105.802 201.173 105.951C200.894 106.268 200.729 106.67 200.704 107.092H200.7Z" fill="#211715"/>
<path d="M191.366 118.763C190.67 120.53 190.634 124.73 193.863 125.373C198.175 125.725 198.866 120.703 197.631 118.205C196.621 116.157 193.202 115.042 191.366 118.763Z" fill="#211715"/>
<path d="M221.404 151.028C224.764 149.745 227.739 147.446 230.497 145.188C231.91 144.042 233.262 142.823 234.546 141.535C235.568 140.566 236.467 139.474 237.221 138.283C238.267 136.49 235.485 134.868 234.44 136.658C234.318 136.868 234.182 137.066 234.045 137.266C233.794 137.63 234.112 137.199 233.927 137.424C233.844 137.528 233.759 137.631 233.673 137.733C233.211 138.283 232.716 138.807 232.21 139.318C230.99 140.537 229.711 141.694 228.375 142.784C227.044 143.888 225.656 144.921 224.216 145.878C223.536 146.328 222.843 146.759 222.129 147.152C221.814 147.327 221.494 147.495 221.169 147.651C221.041 147.713 220.911 147.773 220.78 147.831C220.608 147.906 220.612 147.906 220.79 147.831C220.711 147.864 220.631 147.894 220.55 147.925C220.145 148.048 219.803 148.323 219.594 148.691C219.385 149.06 219.325 149.494 219.426 149.905C219.542 150.315 219.815 150.663 220.186 150.873C220.556 151.084 220.995 151.14 221.406 151.03L221.404 151.028Z" fill="#211715"/>
<path d="M210.016 132.787C212.452 130.615 215.004 128.566 217.636 126.638C221.022 124.037 224.686 121.819 228.56 120.025C228.927 119.808 229.193 119.454 229.301 119.042C229.409 118.63 229.35 118.192 229.138 117.822C228.915 117.462 228.562 117.201 228.152 117.093C227.742 116.986 227.306 117.04 226.935 117.245C222.985 119.076 219.254 121.344 215.809 124.006C213.029 126.054 210.317 128.211 207.739 130.512C206.19 131.894 208.473 134.165 210.016 132.789V132.787Z" fill="#211715"/>
<path d="M210.762 133.417C210.426 132.582 209.89 131.843 209.202 131.263C208.514 130.684 207.694 130.281 206.814 130.092C199.687 128.549 190.555 127.484 183.757 126.788C182.38 126.646 178.391 126.937 177.049 128.576C175.809 130.092 175.26 131.707 175.434 134.564C175.585 137.643 176.06 140.698 176.853 143.678C177.825 147.315 180.239 155.484 182.938 158.315C189.336 165.023 194.811 164.476 200.676 163.83C205.151 163.337 211.181 160.189 214.983 155.4C215.376 154.906 215.657 154.334 215.809 153.722C215.96 153.11 215.979 152.472 215.863 151.852C215.344 149.065 213.577 146.199 212.558 142.537C211.705 139.491 211.642 135.6 210.762 133.417Z" fill="white"/>
<path d="M212.148 132.604C211.69 131.573 210.995 130.665 210.12 129.954C209.244 129.243 208.212 128.749 207.109 128.513C204.695 127.976 202.242 127.565 199.798 127.184C194.804 126.404 189.781 125.807 184.755 125.282C181.187 124.909 176.934 125.379 174.956 128.764C173.777 130.782 173.712 133.096 173.877 135.367C174.048 137.937 174.429 140.489 175.017 142.997C175.932 146.86 177.172 150.638 178.724 154.292C179.405 156.02 180.334 157.64 181.482 159.1C183.078 160.964 184.999 162.525 187.15 163.706C190.73 165.677 194.673 166.015 198.675 165.651C200.623 165.535 202.551 165.192 204.42 164.628C208.822 163.125 212.745 160.477 215.785 156.955C216.691 155.97 217.283 154.738 217.485 153.415C217.59 152.24 217.436 151.057 217.036 149.948C216.319 147.672 215.213 145.54 214.464 143.274C213.67 140.874 213.43 138.386 213.025 135.905C212.889 134.912 212.651 133.936 212.313 132.993C212.19 132.588 211.915 132.246 211.547 132.037C211.179 131.827 210.744 131.767 210.333 131.868C209.923 131.985 209.575 132.257 209.365 132.628C209.155 132.999 209.099 133.437 209.209 133.849C209.962 135.798 210.081 137.964 210.4 140.012C210.767 142.262 211.394 144.461 212.269 146.565C213.007 148.377 214.073 150.316 214.31 152.284C214.552 154.303 212.443 155.958 211.09 157.146C208.255 159.699 204.78 161.433 201.035 162.163C197.984 162.683 194.34 162.901 191.272 161.978C189.471 161.412 187.798 160.501 186.345 159.295C184.907 158.215 183.698 156.861 182.786 155.311C181.032 152.187 179.947 148.666 178.955 145.241C177.829 141.353 176.871 137.22 177.014 133.143C177.062 131.797 177.561 130.039 178.568 129.349C179.717 128.561 181.397 128.392 182.788 128.366C184.873 128.429 186.952 128.629 189.012 128.965C191.552 129.256 194.089 129.573 196.62 129.937C199.178 130.306 201.731 130.717 204.267 131.212C205.391 131.325 206.491 131.611 207.527 132.061C208.369 132.554 209.018 133.319 209.366 134.23C209.583 134.596 209.936 134.863 210.348 134.971C210.761 135.079 211.199 135.02 211.568 134.807C211.929 134.585 212.191 134.232 212.299 133.822C212.407 133.412 212.353 132.976 212.148 132.604Z" fill="#211715"/>
<path d="M196.517 222.87C198.804 213.695 201.046 204.498 203.741 195.435C205.05 191.03 206.519 186.688 208 182.339C208.317 181.408 208.636 180.477 208.992 179.56C209.218 178.944 209.492 178.348 209.811 177.775C209.952 177.522 210.113 177.284 210.267 177.04C210.48 176.705 210.149 177.16 210.329 176.952C210.438 176.824 210.547 176.698 210.664 176.579C210.754 176.488 210.852 176.404 210.943 176.314C210.995 176.263 211.056 176.22 211.111 176.173C211.088 176.192 210.832 176.383 211.034 176.234C211.447 175.928 211.867 175.631 212.295 175.344C216.215 172.769 220.43 170.675 224.85 169.106C229.691 167.233 234.778 166.069 239.953 165.651C241.157 165.576 242.365 165.567 243.57 165.622C244.435 165.621 245.298 165.703 246.147 165.867C246.894 166.047 247.573 166.441 248.101 167C248.986 167.933 249.774 168.953 250.453 170.045C253.407 174.515 255.763 179.352 257.462 184.434C261.184 195.269 262.725 206.714 264.438 217.995C264.661 219.46 264.887 220.925 265.114 222.39C265.23 222.8 265.503 223.148 265.873 223.359C266.244 223.569 266.683 223.625 267.094 223.515C267.5 223.392 267.844 223.118 268.053 222.75C268.262 222.381 268.322 221.946 268.218 221.534C266.379 209.796 264.987 197.877 261.511 186.474C259.904 181.003 257.64 175.747 254.767 170.822C254.046 169.615 253.279 168.439 252.465 167.295C251.745 166.188 250.887 165.178 249.911 164.289C248.167 162.835 246.213 162.53 244.008 162.418C238.686 162.254 233.375 162.984 228.295 164.578C223.24 166.049 218.368 168.089 213.774 170.658C211.942 171.608 210.218 172.752 208.631 174.07C207.631 175.055 206.857 176.245 206.36 177.558C205.506 179.554 204.851 181.628 204.156 183.682C203.33 186.121 202.488 188.548 201.726 191.007C199.043 199.672 196.807 208.463 194.604 217.261C194.207 218.845 193.812 220.429 193.417 222.013C192.916 224.026 196.021 224.882 196.522 222.869L196.517 222.87Z" fill="#211715"/>
<path d="M167.526 82.7816C165.135 82.7507 162.839 81.8437 161.073 80.2326C158.623 77.8177 158.481 74.5503 158.398 72.6023C157.999 63.3588 165.281 55.6984 167.359 53.6384C173.831 60.95 177.085 68.0208 177.126 72.012C177.142 74.0053 176.747 75.9806 175.966 77.8144C175.45 79.0438 174.655 80.1364 173.645 81.006C171.894 82.3318 169.715 82.9642 167.526 82.7816Z" fill="#79C6E0"/>
<path d="M167.526 81.1716C167.253 81.1609 166.983 81.1421 166.712 81.1166C166.408 81.0884 166.632 81.1119 166.696 81.1199C166.586 81.1052 166.476 81.0877 166.366 81.0683C166.058 81.0133 165.751 80.9482 165.448 80.867C164.278 80.5807 163.199 80.0039 162.311 79.1901C160.521 77.4883 160.115 75.105 160.014 72.7652C159.793 67.623 161.983 62.8637 164.983 58.8021C166.054 57.3759 167.228 56.0306 168.497 54.7774H166.222C169.733 58.7652 173.096 63.3574 174.794 68.4521C175.489 70.2176 175.694 72.1384 175.387 74.0109C175.218 75.0114 174.955 75.9936 174.6 76.9443C174.447 77.3729 174.735 76.7115 174.577 77.0026C174.301 77.5205 174.064 78.047 173.739 78.5387C172.334 80.6672 169.882 81.2588 167.527 81.1696C165.454 81.0911 165.458 84.3109 167.527 84.3894C170.195 84.5765 172.833 83.7365 174.902 82.0416C176.526 80.5169 177.662 78.5452 178.167 76.3754C178.848 73.9505 178.893 71.3909 178.296 68.9438C177.621 66.4864 176.626 64.1287 175.335 61.9313C173.391 58.5581 171.099 55.398 168.497 52.5027C168.193 52.2052 167.784 52.0386 167.359 52.0386C166.933 52.0386 166.524 52.2052 166.22 52.5027C162.88 55.7433 160.223 59.6209 158.407 63.9061C157.23 66.7364 156.681 69.7882 156.797 72.8511C156.931 75.8093 157.541 78.6957 159.556 80.9771C161.556 83.2416 164.57 84.2773 167.524 84.3934C169.598 84.4725 169.594 81.2528 167.526 81.1716Z" fill="#211715"/>
<path d="M195.709 224.049H266.664C268.736 224.049 268.739 220.829 266.664 220.829H195.709C193.638 220.829 193.634 224.049 195.709 224.049Z" fill="#211715"/>
<path d="M64.8085 169.408C60.126 171.145 55.7 173.508 51.651 176.432L51.9314 174.892C52.9322 169.392 50.3108 163.695 50.2491 163.542C50.0632 163.083 49.7161 162.708 49.273 162.487C48.83 162.266 48.3214 162.214 47.8429 162.342C43.729 163.455 37.3786 162.848 32.7354 161.152C30.3662 160.286 28.0821 158.596 26.2878 155.209C25.3765 153.325 24.7058 151.335 24.2915 149.283C23.6486 146.377 23.2313 143.425 23.0432 140.455C22.6684 138.974 21.9362 137.607 20.9107 136.475C19.278 134.717 16.6526 133.35 17.9941 130.295C18.5467 129.159 19.4613 128.238 20.5941 127.679C26.2026 124.641 26.434 116.131 26.6138 110.001C26.3864 105.975 26.716 101.938 27.5931 98.0029C32.5127 102.517 40.5696 107.631 46.0888 110.712C49.699 112.725 61.4734 118.236 69.3176 118.658L72.0531 118.805C72.8506 118.594 73.6843 118.558 74.4972 118.698C75.3102 118.838 76.0834 119.152 76.764 119.618C78.7764 121.089 79.7021 124.162 79.5753 126.691C79.2399 133.332 75.8149 137.805 69.7945 140.542C71.6452 145.343 73.6026 150.231 73.8521 155.299C74.1308 159.175 73.037 163.025 70.7625 166.175C70.7625 166.175 70.2715 166.813 69.5322 167.77C67.9291 168.262 66.3453 168.814 64.8085 169.408Z" fill="white"/>
<path d="M46.8411 186.099C43.3429 191.949 38.7916 197.369 36.7524 203.868C35.4779 207.948 35.39 215.204 35.7234 222.522H107.6C104.534 202.989 102.574 183.512 91.7739 168.85C89.3645 165.578 87.8384 165.617 84.8648 165.466C73.0401 164.868 57.1894 171.695 50.7706 177.138C49.9134 180.304 48.589 183.324 46.8411 186.099Z" fill="white"/>
<path d="M0.0075292 68.248C-0.0757389 70.2498 0.491416 72.2247 1.62413 73.8773C2.27109 74.8136 3.15326 75.563 4.18185 76.05C5.03363 76.3767 5.92095 76.6018 6.82544 76.7208C8.27233 77.0012 9.85405 77.2165 11.0125 78.0033C11.659 78.5255 12.1469 79.2178 12.4212 80.0023C12.633 80.781 12.6893 81.5938 12.5868 82.3943C12.5905 82.8202 12.7613 83.2275 13.0624 83.5286C13.3636 83.8297 13.7709 84.0005 14.1967 84.0042C14.6212 83.9963 15.0261 83.8242 15.3264 83.5239C15.6266 83.2237 15.7987 82.8188 15.8066 82.3943C15.9202 81.3425 15.8226 80.2785 15.5196 79.2649C15.2165 78.2512 14.7141 77.3083 14.0418 76.4914C12.774 74.9814 10.9562 74.3046 9.07795 73.8961C7.67667 73.5916 5.91652 73.611 4.8627 72.7054C3.61168 71.6322 3.16494 69.7634 3.22732 68.2501C3.31251 66.178 0.0927195 66.182 0.0075292 68.2501V68.248Z" fill="#211715"/>
<path d="M8.49533 59.5412C8.41202 61.5418 8.97895 63.5156 10.1113 65.1671C10.7584 66.1036 11.6408 66.8532 12.6697 67.3405C13.5215 67.667 14.4088 67.8921 15.3132 68.0113C16.7595 68.2916 18.3412 68.507 19.5003 69.2938C20.1468 69.8159 20.6347 70.5083 20.909 71.2928C21.1219 72.0717 21.1792 72.885 21.0773 73.6861C21.081 74.112 21.2518 74.5193 21.5529 74.8204C21.854 75.1216 22.2614 75.2924 22.6872 75.296C23.1117 75.288 23.5165 75.1157 23.8167 74.8156C24.1168 74.5154 24.289 74.1106 24.2971 73.6861C24.4105 72.6343 24.3129 71.5704 24.0098 70.5567C23.7068 69.5431 23.2044 68.6002 22.5323 67.7832C21.2638 66.2739 19.4466 65.5971 17.5684 65.1886C16.1672 64.884 14.4063 64.9035 13.3525 63.9979C12.1015 62.9247 11.6554 61.0558 11.7178 59.5425C11.8023 57.4705 8.58254 57.4745 8.49802 59.5425L8.49533 59.5412Z" fill="#211715"/>
<path d="M17.3875 50.4192C17.3036 52.4209 17.8706 54.396 19.0035 56.0484C19.6508 56.9846 20.5332 57.734 21.5619 58.2211C22.4137 58.5476 23.301 58.7727 24.2054 58.8919C25.6517 59.1723 27.2334 59.3876 28.3925 60.1745C29.0392 60.6962 29.5272 61.3883 29.8012 62.1728C30.0133 62.9516 30.0698 63.7647 29.9675 64.5655C29.9712 64.9913 30.142 65.3986 30.4431 65.6998C30.7442 66.0009 31.1516 66.1717 31.5774 66.1754C32.0019 66.1674 32.4068 65.9953 32.707 65.6951C33.0072 65.3949 33.1794 64.99 33.1873 64.5655C33.3008 63.5136 33.2032 62.4497 32.9001 61.436C32.5971 60.4224 32.0947 59.4795 31.4225 58.6625C30.154 57.1532 28.3368 56.4757 26.4586 56.0679C25.0573 55.7634 23.2965 55.7821 22.2427 54.8766C20.9917 53.8033 20.5456 51.9345 20.608 50.4212C20.6925 48.3498 17.4727 48.3531 17.3882 50.4212L17.3875 50.4192Z" fill="#211715"/>
<path d="M37.3295 222.442C37.1645 218.709 37.0806 214.963 37.2825 211.23C37.3526 208.411 37.8532 205.619 38.767 202.951C40.9035 197.218 44.9094 192.399 48.0494 187.214C49.9417 184.226 51.3814 180.975 52.3216 177.566L51.9071 178.276C53.8063 176.757 55.8481 175.424 58.0039 174.297C60.6899 172.85 63.4761 171.597 66.3411 170.548C72.1475 168.41 78.406 166.812 84.6369 167.07C85.755 167.025 86.8727 167.165 87.9453 167.484C88.3088 167.646 88.6496 167.854 88.9588 168.105C89.5579 168.632 90.0908 169.23 90.5459 169.886C92.5341 172.637 94.2631 175.566 95.711 178.635C98.6913 184.907 100.549 191.669 101.977 198.445C103.684 206.552 104.768 214.773 106.05 222.954C106.166 223.364 106.439 223.712 106.809 223.922C107.18 224.132 107.618 224.188 108.03 224.078C108.436 223.956 108.78 223.682 108.989 223.313C109.198 222.944 109.258 222.509 109.154 222.098C107.438 211.143 106.109 200.056 103.072 189.363C101.656 184.204 99.6906 179.212 97.2095 174.472C96.0005 172.187 94.6189 169.998 93.0768 167.924C91.7453 166.153 90.1609 164.57 87.901 164.143C83.4503 163.305 78.5851 163.96 74.2082 164.894C69.3406 165.967 64.6055 167.571 60.088 169.677C58.098 170.583 56.1602 171.599 54.2837 172.721C53.4533 173.221 52.6369 173.747 51.844 174.306C51.0575 174.804 50.3181 175.373 49.6351 176.006C49.1562 176.502 49.0723 177.322 48.8765 177.962C48.6886 178.576 48.474 179.184 48.2452 179.783C47.8079 180.888 47.3062 181.966 46.7427 183.012C45.5876 185.194 44.2453 187.27 42.883 189.327C40.1066 193.519 37.2356 197.694 35.5311 202.464C33.8146 207.271 33.8877 212.719 33.9655 217.758C33.9903 219.323 34.0426 220.887 34.1117 222.454C34.2029 224.517 37.4234 224.529 37.3315 222.454L37.3295 222.442Z" fill="#211715"/>
<path d="M36.6454 224.132H107.6C109.672 224.132 109.676 220.913 107.6 220.913H36.6454C34.574 220.913 34.57 224.132 36.6454 224.132Z" fill="#211715"/>
<path d="M48.511 70.9978C39.9618 74.6073 33.0131 81.8323 29.2379 89.7852C28.1465 92.1559 27.3026 94.6328 26.7197 97.1767C31.5092 101.879 40.2308 107.44 46.0915 110.715C49.7017 112.727 61.476 118.238 69.3202 118.66L72.055 118.808C72.8527 118.597 73.6865 118.56 74.4995 118.7C75.3126 118.841 76.0859 119.154 76.7667 119.621C78.779 121.091 79.7047 124.165 79.578 126.693C79.2426 133.334 75.8215 137.806 69.7978 140.543C71.6479 145.344 73.6052 150.233 73.8548 155.301C74.1334 159.176 73.0397 163.026 70.7651 166.177C69.3813 167.974 76.108 170.032 79.252 170.595C81.499 171.007 83.7957 171.075 86.0631 170.796C101.745 179.86 111.634 172.062 112.273 165.318C112.61 161.818 112.33 158.285 111.447 154.881C110.327 150.074 107.799 141.146 110.603 126.366C111.454 121.877 111.502 114.906 111.761 111.75C111.761 111.75 111.94 96.0678 104.376 86.4044C94.8767 74.2692 84.303 67.2118 65.0178 67.4989C60.0863 67.7004 55.2102 68.6169 50.5422 70.2196C49.8562 70.4558 49.1791 70.7151 48.511 70.9978Z" fill="#B5886A"/>
<path d="M27.0213 107.97C27.0702 99.6104 29.302 91.3482 34.2282 84.5377C38.625 78.3658 44.8824 73.7638 52.084 71.4057C65.701 67.1294 81.9086 68.4871 93.4227 77.4354C95.842 79.3488 98.0825 81.4779 100.117 83.7965C102.487 86.3145 104.487 89.1564 106.058 92.237C107.481 95.3262 108.512 98.5814 109.127 101.927C109.614 104.35 109.928 106.805 110.066 109.273C110.139 110.556 110.136 111.842 110.058 113.125C109.852 116.854 109.795 120.603 109.309 124.31C109.031 126.424 108.581 128.511 108.303 130.628C108.026 132.734 107.837 134.854 107.757 136.976C107.63 140.478 107.813 143.984 108.304 147.453C108.632 149.801 109.132 152.109 109.68 154.413C110.103 156.047 110.423 157.707 110.638 159.382C110.754 160.437 110.81 161.499 110.804 162.561C110.804 163.164 110.777 163.768 110.737 164.372C110.716 164.688 110.692 165.004 110.661 165.319C110.625 165.674 110.716 165.069 110.643 165.457C110.544 165.989 110.402 166.512 110.218 167.021C110.05 167.484 110.352 166.746 110.151 167.2C110.087 167.341 110.017 167.481 109.95 167.619C109.806 167.901 109.648 168.176 109.48 168.443C108.845 169.397 108.054 170.238 107.141 170.932C104.579 172.704 101.479 173.53 98.3745 173.267C96.3828 173.125 94.4196 172.713 92.5387 172.043C90.5706 171.379 89.7267 174.488 91.6827 175.148C98.5301 177.458 107.002 177.066 111.696 170.866C113.744 168.162 114.105 164.997 114.019 161.683C113.929 158.225 113.072 154.912 112.324 151.56C110.863 144.884 110.568 138.005 111.452 131.229C111.729 128.99 112.211 126.785 112.503 124.55C112.772 122.519 112.912 120.475 113.025 118.431C113.159 116.044 113.411 113.609 113.371 111.22C113.294 105.818 112.406 100.459 110.735 95.322C109.586 91.6952 107.82 88.2937 105.515 85.2669C103.4 82.5174 101.064 79.9443 98.5322 77.5729C93.5768 72.9341 87.5803 69.5525 81.0467 67.7123C72.7906 65.4604 64.1113 65.2456 55.7539 67.0865C52.0836 67.8552 48.5299 69.1016 45.1836 70.7939C41.449 72.7768 38.0627 75.3554 35.158 78.4282C32.3534 81.3559 29.9994 84.684 28.173 88.3035C26.2223 92.332 24.9292 96.6468 24.3428 101.084C24.0047 103.364 23.8236 105.665 23.8008 107.97C23.7887 110.042 27.0092 110.044 27.0213 107.97Z" fill="#211715"/>
<path d="M68.5071 141.652C70.0868 145.744 71.788 149.97 72.181 154.377C72.3827 156.37 72.2466 158.383 71.7786 160.33C71.5751 161.174 71.2924 161.997 70.934 162.787C70.4627 163.675 69.9414 164.535 69.3724 165.364C67.6284 168.219 71.6927 169.976 73.7259 170.737C76.7804 171.893 80.0105 172.518 83.2759 172.583C85.478 172.671 87.6709 172.252 89.6853 171.358C91.758 170.317 93.409 168.594 94.3607 166.479C94.5644 166.108 94.618 165.672 94.5106 165.263C94.4032 164.853 94.1429 164.5 93.7831 164.276C93.4136 164.064 92.9756 164.006 92.5635 164.114C92.1514 164.222 91.7983 164.488 91.5803 164.854C90.9274 166.4 89.7642 167.676 88.2847 168.468C86.7964 169.131 85.174 169.439 83.5462 169.366C80.6895 169.328 77.8591 168.814 75.1714 167.845C74.6051 167.657 74.0503 167.436 73.5099 167.183C73.2717 167.068 73.0356 166.947 72.8062 166.815C72.6902 166.748 72.5761 166.676 72.4621 166.605C72.4212 166.58 72.067 166.291 72.3232 166.515C72.2434 166.448 72.1669 166.375 72.0932 166.299C71.959 166.165 72.1891 166.609 72.1079 166.32C72.0408 166.089 72.1582 166.959 72.1589 166.906C72.1589 166.782 71.9436 167.191 72.1529 166.988C72.2739 166.85 72.3831 166.702 72.4795 166.546C72.7953 166.097 73.0842 165.629 73.3449 165.146C75.0621 161.833 75.7759 158.09 75.3988 154.377C74.9762 149.642 73.308 145.195 71.6095 140.796C71.4857 140.391 71.2114 140.049 70.8432 139.84C70.4749 139.631 70.0406 139.571 69.6294 139.672C69.2193 139.788 68.8715 140.061 68.6611 140.431C68.4507 140.802 68.3947 141.24 68.5051 141.652H68.5071Z" fill="#211715"/>
<path d="M25.5504 98.2853C30.6672 103.287 36.9357 107.25 43.0855 110.849C47.9937 113.702 53.1752 116.057 58.5526 117.877C62.0179 119.155 65.6397 119.96 69.3201 120.27C71.3895 120.392 71.3828 117.172 69.3201 117.05C66.2964 116.784 63.3186 116.136 60.4576 115.122C57.5187 114.162 54.6358 113.038 51.8226 111.755C46.6148 109.319 41.625 106.441 36.9076 103.154C33.6751 101.046 30.6363 98.6542 27.8271 96.008C26.3446 94.5584 24.066 96.8338 25.5504 98.2853Z" fill="#211715"/>
<path d="M53.4863 175.32C54.0273 171.76 53.6654 168.121 52.4338 164.737C52.2016 163.973 51.9028 163.231 51.541 162.519C51.0901 161.728 50.3621 161.133 49.4978 160.848C48.5981 160.626 47.6544 160.66 46.773 160.946C43.5136 161.655 39.937 161.321 36.7071 160.615C33.5638 159.927 30.6808 158.864 28.7489 156.143C26.489 152.959 25.7303 148.909 25.1488 145.123C25.0146 144.237 24.9028 143.349 24.8134 142.458C24.7836 141.645 24.7115 140.833 24.5974 140.027C24.1474 138.172 23.196 136.476 21.8471 135.125C21.0046 134.264 19.7952 133.484 19.3384 132.421C19.2005 132.025 19.2098 131.593 19.3645 131.204C19.6308 130.489 20.12 129.879 20.7598 129.463C21.99 128.611 23.2243 127.955 24.1996 126.78C25.1478 125.614 25.9014 124.302 26.4313 122.896C29.2339 115.77 27.4737 107.874 28.7281 100.502C28.8292 100.091 28.769 99.6566 28.5598 99.2884C28.3506 98.9201 28.0083 98.6459 27.6032 98.5222C27.1919 98.4127 26.754 98.4691 26.3839 98.6792C26.0138 98.8894 25.741 99.2365 25.6243 99.6458C25.2792 101.652 25.0652 103.678 24.9837 105.712C24.9106 107.623 25.0267 109.531 24.9623 111.44C24.9516 114.32 24.6236 117.191 23.9843 119.999C23.341 122.469 22.2067 124.878 19.9649 126.19C18.2866 127.038 16.9818 128.477 16.3024 130.23C16.0403 130.986 15.9674 131.794 16.0902 132.583C16.213 133.373 16.5277 134.121 17.0067 134.761C17.8586 135.917 19.0318 136.739 19.9582 137.821C20.4423 138.397 20.8322 139.046 21.1133 139.744C21.3757 140.456 21.5213 141.206 21.5446 141.964C21.8079 146.013 22.6131 150.008 23.9387 153.842C25.1957 157.172 27.3704 160.282 30.5895 161.959C33.696 163.576 37.4403 164.199 40.8962 164.441C42.9191 164.597 44.9534 164.51 46.9555 164.181C47.362 164.114 48.2186 163.716 48.5955 163.938C48.7619 164.036 48.8203 164.258 48.894 164.425C49.0155 164.697 48.7418 164.034 48.8981 164.435C50.129 167.579 50.9607 171.084 50.3839 174.464C50.2829 174.876 50.3432 175.31 50.5524 175.678C50.7616 176.046 51.1038 176.321 51.5088 176.444C51.9203 176.555 52.3587 176.498 52.7292 176.288C53.0997 176.078 53.3726 175.73 53.4889 175.32H53.4863Z" fill="#211715"/>
<path d="M69.1971 122.403C70.6628 120.813 72.8764 119.635 75.0672 120.505C76.93 121.243 77.7859 123.539 77.9429 125.393C78.0867 127.298 77.8185 129.211 77.1567 131.002C76.4948 132.794 75.4547 134.422 74.1073 135.775C72.463 137.337 70.5333 138.566 68.4237 139.398C68.0194 139.523 67.678 139.797 67.469 140.165C67.26 140.533 67.1991 140.967 67.2988 141.378C67.4148 141.789 67.6878 142.137 68.0585 142.347C68.4293 142.557 68.8679 142.613 69.2796 142.503C74.0704 140.525 78.126 137.358 80.0511 132.417C81.8911 127.694 81.9602 120.007 76.4805 117.624C73.081 116.149 69.3212 117.522 66.9204 120.126C65.5171 121.647 67.7884 123.93 69.1971 122.403Z" fill="#211715"/>
<path d="M44.996 116.897C44.7599 118.74 45.0631 120.938 46.5059 122.257C47.3337 122.979 48.3807 123.4 49.4777 123.453C50.5747 123.506 51.6575 123.188 52.5511 122.549C53.1397 122.145 53.6218 121.605 53.9563 120.974C54.2908 120.343 54.4678 119.641 54.4722 118.927C54.4722 118.5 54.3026 118.091 54.0007 117.789C53.6988 117.487 53.2893 117.317 52.8623 117.317C52.4354 117.317 52.0259 117.487 51.724 117.789C51.4221 118.091 51.2524 118.5 51.2524 118.927C51.2524 119.015 51.2524 119.101 51.2471 119.189C51.2377 119.468 51.3249 118.833 51.2565 119.099C51.2323 119.194 51.2068 119.287 51.1793 119.382C51.0868 119.7 51.3195 119.135 51.1981 119.341C51.1559 119.412 51.1203 119.486 51.0767 119.556C51.0525 119.59 51.0301 119.624 51.0096 119.66C50.9425 119.794 51.1404 119.499 51.1384 119.5C50.9955 119.626 50.8761 119.787 50.7359 119.917C50.5347 120.098 51.0237 119.724 50.7943 119.869C50.7232 119.914 50.6534 119.962 50.5803 120.003C50.5072 120.044 50.4307 120.083 50.3549 120.122C50.2489 120.178 50.1155 120.18 50.5052 120.063C50.4515 120.079 50.3985 120.104 50.3449 120.122C50.1816 120.175 50.0151 120.218 49.8465 120.25C49.5708 120.307 50.2141 120.225 49.9323 120.235C49.817 120.239 49.7029 120.245 49.5869 120.242C49.5037 120.242 49.4219 120.23 49.3394 120.226C49.065 120.209 49.7137 120.301 49.4541 120.238C49.2964 120.2 49.1428 120.161 48.9845 120.112C48.6639 120.009 49.2837 120.268 49.0757 120.15C49.0154 120.116 48.953 120.086 48.8933 120.051C48.8336 120.015 48.7792 119.976 48.7216 119.94C48.5317 119.819 49.0294 120.214 48.8101 120.002C48.7806 119.974 48.5116 119.683 48.5076 119.685C48.5156 119.685 48.7222 119.988 48.6558 119.876C48.6384 119.847 48.6156 119.82 48.5968 119.792C48.5518 119.725 48.5096 119.658 48.47 119.585C48.4304 119.513 48.4029 119.46 48.3721 119.398C48.2258 119.117 48.4915 119.733 48.4056 119.485C48.352 119.332 48.2996 119.181 48.2587 119.024C48.2359 118.936 48.2158 118.849 48.1983 118.761C48.1702 118.62 48.1541 118.26 48.1923 118.797C48.1782 118.604 48.1534 118.414 48.1467 118.221C48.1348 117.778 48.1586 117.336 48.2178 116.897C48.2186 116.686 48.1775 116.476 48.0969 116.28C48.0163 116.084 47.8978 115.907 47.7482 115.757C47.4463 115.455 47.0369 115.285 46.6099 115.285C46.183 115.285 45.7735 115.455 45.4716 115.757C45.1917 116.074 45.0264 116.475 45.002 116.897H44.996Z" fill="#211715"/>
<path d="M33.0028 118.741C32.3071 120.507 32.2716 124.711 35.5001 125.35C39.8126 125.702 40.5022 120.68 39.2679 118.182C38.2597 116.137 34.84 115.022 33.0028 118.741Z" fill="#211715"/>
<path d="M63.7544 151.601C66.9158 150.2 69.7117 147.73 72.2399 145.421C73.5634 144.222 74.8237 142.956 76.0157 141.627C76.9911 140.61 77.8365 139.476 78.5325 138.251C79.4784 136.411 76.7013 134.78 75.7528 136.626C75.4951 137.105 75.2 137.564 74.87 137.997C74.7627 138.138 74.7661 138.135 74.8814 137.986C74.8251 138.059 74.7681 138.13 74.7104 138.202C74.6205 138.314 74.5299 138.426 74.4387 138.538C74.1767 138.854 73.9083 139.165 73.6338 139.471C72.4787 140.761 71.2424 141.978 69.9645 143.146C67.5712 145.333 65.1436 147.487 62.1311 148.823C61.7646 149.04 61.4985 149.393 61.3904 149.806C61.2823 150.218 61.3409 150.656 61.5535 151.026C61.7762 151.387 62.1292 151.648 62.5394 151.755C62.9495 151.863 63.3853 151.808 63.7564 151.603L63.7544 151.601Z" fill="#211715"/>
<path d="M52.5429 132.154C54.7257 130.209 57.0131 128.372 59.3709 126.644C62.4131 124.308 65.7043 122.316 69.1845 120.705C69.551 120.487 69.8171 120.134 69.9251 119.722C70.0332 119.31 69.9747 118.872 69.7621 118.502C69.5392 118.142 69.1862 117.881 68.7761 117.773C68.3661 117.666 67.9304 117.72 67.5592 117.925C64.0048 119.574 60.6458 121.615 57.545 124.011C55.0383 125.859 52.5919 127.805 50.2663 129.878C48.7167 131.26 51.0001 133.53 52.5429 132.154Z" fill="#211715"/>
<path d="M52.6507 133.417C52.3143 132.582 51.7785 131.843 51.0904 131.263C50.4022 130.684 49.5826 130.281 48.7031 130.092C41.5753 128.549 32.4438 127.484 25.6461 126.788C24.2683 126.646 20.2797 126.937 18.9382 128.576C17.6985 130.092 17.1492 131.707 17.3236 134.564C17.4739 137.643 17.9495 140.698 18.7423 143.678C19.7143 147.315 22.1278 155.484 24.8264 158.315C31.2243 165.023 36.6993 164.476 42.5647 163.83C47.0396 163.337 53.0693 160.189 56.872 155.4C57.2642 154.906 57.5457 154.334 57.6974 153.722C57.8492 153.11 57.8676 152.472 57.7514 151.852C57.2329 149.065 55.466 146.273 54.4464 142.612C53.5959 139.562 53.5348 135.6 52.6507 133.417Z" fill="white"/>
<path d="M54.0416 132.604C53.5835 131.573 52.8882 130.666 52.0126 129.954C51.1369 129.243 50.1055 128.749 49.0026 128.513C46.5844 127.976 44.1353 127.565 41.691 127.184C36.6547 126.398 31.5896 125.797 26.5211 125.269C22.9558 124.897 18.7205 125.447 16.8 128.851C15.6677 130.857 15.6073 133.126 15.769 135.367C15.9408 137.937 16.3222 140.489 16.9093 142.997C17.8307 146.899 19.0862 150.714 20.6617 154.4C21.3433 156.116 22.2753 157.721 23.4274 159.163C25.041 161.03 26.9796 162.589 29.1492 163.765C32.7393 165.705 36.6762 166.012 40.6707 165.643C42.6602 165.521 44.6272 165.156 46.528 164.556C48.6539 163.816 50.6729 162.798 52.533 161.53C54.5245 160.202 56.3136 158.592 57.8449 156.752C59.5816 154.618 59.699 152.271 58.8511 149.728C58.0972 147.464 56.989 145.339 56.2612 143.064C55.5086 140.712 55.2973 138.263 54.9008 135.838C54.767 134.869 54.5333 133.916 54.2032 132.995C54.0794 132.59 53.8051 132.248 53.4369 132.039C53.0686 131.829 52.6343 131.769 52.223 131.87C51.813 131.987 51.4652 132.259 51.2548 132.63C51.0444 133.001 50.9884 133.439 51.0988 133.851C51.8367 135.758 51.9567 137.875 52.2613 139.882C52.6003 142.106 53.2022 144.282 54.0543 146.364C54.8063 148.218 55.7796 150.078 56.1545 152.06C56.5463 154.129 54.5561 155.734 53.1762 156.971C50.3553 159.567 46.8852 161.352 43.1332 162.137C40.1146 162.699 36.432 162.919 33.3779 162.049C29.7441 160.964 26.6439 158.566 24.6804 155.321C22.9572 152.252 21.8866 148.804 20.9045 145.44C19.7535 141.494 18.7634 137.295 18.9096 133.153C18.9552 131.85 19.4342 130.104 20.3854 129.408C21.5331 128.569 23.2698 128.402 24.6784 128.376C26.7641 128.439 28.8433 128.639 30.9027 128.975C33.4423 129.266 35.9799 129.583 38.5108 129.947C41.0685 130.316 43.6215 130.727 46.1578 131.222C47.282 131.335 48.382 131.621 49.4185 132.071C50.2601 132.564 50.9085 133.329 51.2564 134.24C51.4738 134.606 51.8269 134.873 52.2393 134.981C52.6516 135.089 53.09 135.03 53.4593 134.817C53.8231 134.595 54.0868 134.24 54.1953 133.828C54.3038 133.415 54.2487 132.977 54.0416 132.604Z" fill="#211715"/>
</g>
<defs>
<clipPath id="clip0_521_481">
<rect width="273" height="273" fill="white"/>
</clipPath>
</defs>
</svg>
